<svg xmlns="http://www.w3.org/2000/svg" xmlns:xlink="http://www.w3.org/1999/xlink" viewBox="0 0 181.42 180.9"><defs><style>.cls-1{fill:#07c3f2;}.cls-2{fill:#ffcc01;}.cls-3{fill:#00e8dc;}.cls-4{fill:url(#未命名的渐变_7);}</style><linearGradient id="未命名的渐变_7" x1="152.11" y1="75.27" x2="0" y2="75.27" gradientUnits="userSpaceOnUse"><stop offset="0" stop-color="#00e8dc"/><stop offset="1" stop-color="#07c3f2"/></linearGradient></defs><g id="组_1" data-name="组 1"><g id="圆角矩形_1" data-name="圆角矩形 1"><rect class="cls-1" x="29.41" y="33.03" width="26.2" height="113.08" rx="12.99"/></g><g id="圆角矩形_1_拷贝_3" data-name="圆角矩形 1 拷贝 3"><rect class="cls-1" x="88.24" width="26" height="180.9" rx="12.92"/></g><g id="椭圆_2_拷贝_2" data-name="椭圆 2 拷贝 2"><ellipse class="cls-2" cx="160.01" cy="38.92" rx="21.41" ry="21.39"/></g><g id="圆角矩形_1_拷贝_3-2" data-name="圆角矩形 1 拷贝 3"><rect class="cls-3" x="147.27" y="74.84" width="26.24" height="79.93" rx="12.99"/></g><path class="cls-4" d="M152.11,64.38A10.29,10.29,0,0,1,150,66c-1.87,1.18-3.79,2.36-5.72,3.48-38.84,22.79-84,35.37-130.55,36.38h-.32a13.38,13.38,0,0,1-.27-26.75c42-.91,82.66-12.25,117.6-32.69,1-.59,2-1.23,3-1.82A28.78,28.78,0,0,0,152.11,64.38Z"/></g></svg>